<svg width="360" height="44" viewBox="0 0 360 44" fill="none" xmlns="http://www.w3.org/2000/svg">
<path d="M93.0225 34.7293C93.0225 33.6493 91.4386 33.6493 91.4386 34.7293C91.4386 35.8094 93.0225 35.8025 93.0225 34.7293ZM91.5723 41.8815H92.8554C92.8888 41.8815 92.9289 41.8538 92.9289 41.8053V36.4326C92.9289 36.398 92.8955 36.3564 92.8554 36.3564H91.5723C91.5388 36.3564 91.4987 36.391 91.4987 36.4326V41.8053C91.4987 41.8538 91.5322 41.8815 91.5723 41.8815ZM73.9689 36.4326C73.9689 36.398 73.9956 36.3564 74.0424 36.3564H75.3189C75.3523 36.3564 75.3924 36.391 75.3924 36.4326V41.8053C75.3924 41.84 75.3657 41.8815 75.3189 41.8815H74.0424C74.009 41.8815 73.9689 41.8538 73.9689 41.8053V41.3968C73.5211 41.8261 72.9998 41.833 72.532 41.84H72.4518C71.6899 41.84 71.0417 41.5907 70.5805 41.1199C70.0927 40.6283 69.8387 39.8944 69.8387 39.022C69.8387 37.3327 70.8746 36.2526 72.4852 36.2526H72.512C73.0132 36.2526 73.5412 36.3079 73.9689 36.6611V36.4326ZM73.6949 40.0121C73.9087 39.749 74.009 39.4028 74.009 39.022C74.009 38.3297 73.608 37.6096 72.6256 37.6096C71.8169 37.6096 71.2756 38.1912 71.2756 39.0428C71.2756 39.8944 71.8169 40.4829 72.6256 40.4829C73.0399 40.476 73.461 40.296 73.6949 40.0052M90.7235 41.8746C90.7569 41.8746 90.797 41.8469 90.797 41.7984V40.5937C90.797 40.5591 90.7703 40.5175 90.7235 40.5175H90.0886C89.721 40.4968 89.5473 40.3098 89.5473 39.9013V37.8519H90.7101C90.7435 37.8519 90.7836 37.8173 90.7836 37.7758V36.4395C90.7836 36.4049 90.7569 36.3633 90.7101 36.3633H89.554V35.1932C89.554 35.1586 89.5205 35.1171 89.4804 35.1171H88.1973C88.1639 35.1171 88.1238 35.1517 88.1238 35.1932V39.9013C88.1238 41.1545 88.7988 41.8746 90.0017 41.8746H90.2423H90.7168H90.7235ZM97.3665 40.1575C97.3665 40.1575 97.293 40.1298 97.2663 40.1506C97.019 40.3583 96.6982 40.4829 96.3975 40.4829C95.6156 40.4829 95.0809 39.9013 95.0809 39.0705C95.0809 38.2397 95.6222 37.6581 96.3975 37.6581C96.6982 37.6581 97.019 37.7827 97.2663 37.9904C97.293 38.0181 97.3398 38.0112 97.3665 37.9835L98.1886 37.0834C98.1886 37.0834 98.2153 37.0072 98.1886 36.9795C97.6539 36.4603 97.1193 36.2387 96.3707 36.2387C94.7 36.2387 93.6307 37.3465 93.6307 39.0705C93.6307 40.7945 94.7 41.9023 96.3707 41.9023C97.1059 41.9023 97.6539 41.6807 98.1886 41.1614C98.2153 41.1337 98.2153 41.0853 98.1886 41.0576L97.3665 40.1714V40.1575ZM70.1729 35.0201V33.7323C70.1729 33.6839 70.1394 33.6354 70.0793 33.6354H65.4612C65.4145 33.6354 65.3677 33.67 65.3677 33.7323V41.7846C65.3677 41.833 65.4145 41.8815 65.4612 41.8815H66.7043C66.7511 41.8815 66.7979 41.8469 66.7979 41.7846V38.5028C66.7979 38.4543 66.8313 38.4058 66.8914 38.4058H69.2172C69.2639 38.4058 69.3107 38.3712 69.3107 38.3089V37.0211C69.3107 36.9726 69.2773 36.9242 69.2172 36.9242H66.8914C66.8447 36.9242 66.7979 36.8895 66.7979 36.8272V35.214C66.7979 35.1655 66.8313 35.1171 66.8914 35.1171H70.0793C70.1328 35.1171 70.1729 35.0825 70.1729 35.0201ZM85.9718 36.4256C85.9718 36.391 85.9985 36.3495 86.0453 36.3495H87.3218C87.3552 36.3495 87.3953 36.3841 87.3953 36.4256V41.7984C87.3953 41.833 87.3686 41.8746 87.3218 41.8746H86.0453C86.0119 41.8746 85.9718 41.8469 85.9718 41.7984V41.3899C85.524 41.8192 85.0027 41.8261 84.5349 41.833H84.4547C83.6928 41.833 83.0446 41.5838 82.5834 41.113C82.0956 40.6214 81.8416 39.8875 81.8416 39.0151C81.8416 37.3257 82.8775 36.2456 84.4881 36.2456H84.5149C85.0161 36.2456 85.5441 36.301 85.9718 36.6541V36.4256ZM85.6978 40.0052C85.9116 39.7421 86.0119 39.3959 86.0119 39.0151C86.0119 38.3227 85.5975 37.6027 84.6285 37.6027C83.8198 37.6027 83.2785 38.1843 83.2785 39.0359C83.2785 39.8875 83.8198 40.476 84.6285 40.476C85.0295 40.4691 85.4639 40.2891 85.6978 39.9983M98.5896 40.8983C98.5896 40.8983 98.5695 40.9745 98.5962 40.9953C99.3581 41.7846 100.18 41.8884 100.909 41.8884C101.918 41.8884 102.68 41.4869 102.987 40.7876C103.081 40.5799 103.134 40.3444 103.134 40.1021C103.134 38.6897 101.958 38.4335 100.935 38.3574C100.12 38.302 100.12 38.0042 100.12 37.9142C100.12 37.5542 100.668 37.5127 100.909 37.5127C101.37 37.5127 101.704 37.6234 101.998 37.8796C102.025 37.9073 102.071 37.9073 102.098 37.8727L102.82 37.0003C102.82 37.0003 102.847 36.9242 102.813 36.8965C102.279 36.4395 101.724 36.2526 100.889 36.2526C100.354 36.2526 99.846 36.3841 99.4584 36.6195C98.9638 36.9242 98.7098 37.3811 98.7098 37.9489C98.7098 38.9389 99.4717 39.5344 100.848 39.6382C101.63 39.6867 101.731 39.9221 101.731 40.116C101.731 40.4137 101.356 40.5591 100.982 40.5591H100.949C100.341 40.5522 99.7658 40.3237 99.3849 39.9429C99.3581 39.9152 99.3047 39.9152 99.2779 39.9498L98.6096 40.8983H98.5896ZM79.0414 36.2872C80.3513 36.2872 81.2334 37.3396 81.2334 38.8974V41.7915C81.2334 41.8261 81.2 41.8677 81.1599 41.8677H79.8768C79.8434 41.8677 79.8033 41.84 79.8033 41.7915V38.9043C79.8033 38.295 79.5159 37.6511 78.7206 37.6511H78.6939C78.079 37.6581 77.5644 38.2189 77.5644 38.8697V41.7915C77.5644 41.8261 77.531 41.8677 77.4909 41.8677H76.2144C76.181 41.8677 76.1409 41.84 76.1409 41.7915V36.4256C76.1409 36.391 76.1743 36.3495 76.2144 36.3495H77.4441C77.4775 36.3495 77.5176 36.3772 77.5176 36.4256V36.9034C78.0055 36.4741 78.48 36.2872 79.0414 36.2872Z" fill="#15151E"/>
<path d="M59.3323 38.2324C59.3323 38.2324 59.3858 38.2324 59.4058 38.2117L61.0298 35.6222C61.0298 35.6222 61.0298 35.5461 60.9964 35.5391C58.6707 34.7014 56.4853 36.3077 53.1638 36.3907C53.0836 36.3907 52.99 36.4946 53.0568 36.6123L56.6524 42.359C56.7058 42.4559 56.8261 42.3936 56.8194 42.3036L56.0509 38.6686C56.0509 38.6686 56.0576 38.6132 56.0977 38.5925C56.3516 38.4886 58.39 37.7755 59.3524 38.2394M63.2353 32.0981L61.9053 34.2444C61.8786 34.2929 61.8251 34.3136 61.7783 34.2929C58.7108 32.6866 55.162 35.6291 52.0343 34.9298C52.0076 34.9229 51.9809 34.9091 51.9608 34.8814C51.9608 34.8814 50.4504 32.4719 49.9425 31.6619C49.8757 31.558 49.9626 31.4126 50.0895 31.4403C50.3635 31.5096 51.5398 31.7727 52.4554 31.8419C57.2004 32.105 59.7801 29.1555 63.2152 31.9527C63.2486 31.9804 63.262 32.0496 63.2353 32.0981Z" fill="#15151E"/>
<path d="M111.748 41.6806H106.702V34.5977H111.721V35.6985H107.798V37.6164H111.568V38.6619H107.798V40.5728H111.748V41.6806Z" fill="#15151E"/>
<path d="M115.878 36.6957H117.094V36.7234L115.47 39.1467L117.201 41.6531V41.6808H115.985L114.809 39.8668L113.632 41.6808H112.423V41.6531L114.14 39.1467L112.523 36.7234V36.6957H113.733L114.809 38.4751L115.878 36.6957Z" fill="#15151E"/>
<path d="M120.604 40.8013C120.825 40.8013 121.025 40.7667 121.219 40.6766C121.4 40.6005 121.567 40.4897 121.707 40.3443C121.847 40.1989 121.948 40.0327 122.028 39.8389C122.101 39.6381 122.135 39.4304 122.135 39.195C122.135 38.7172 121.994 38.3434 121.72 38.0456C121.446 37.7479 121.079 37.6095 120.611 37.6095C120.384 37.6095 120.17 37.6441 119.976 37.7341C119.796 37.8172 119.635 37.921 119.502 38.0733C119.375 38.2187 119.274 38.3849 119.201 38.5788C119.127 38.7657 119.094 38.9803 119.094 39.195C119.094 39.4096 119.127 39.6242 119.201 39.825C119.274 40.0258 119.375 40.192 119.515 40.3374C119.655 40.4828 119.809 40.5936 119.989 40.6766C120.183 40.7597 120.384 40.8013 120.604 40.8013ZM118.005 44V36.6955H118.947L119 37.5056C119.194 37.201 119.441 36.9725 119.742 36.8202C120.043 36.6678 120.364 36.5917 120.698 36.5917C121.052 36.5917 121.386 36.6609 121.687 36.7925C121.988 36.924 122.248 37.104 122.455 37.3325C122.669 37.561 122.843 37.8379 122.95 38.1564C123.07 38.4818 123.124 38.8211 123.124 39.1881C123.124 39.555 123.07 39.9289 122.95 40.2404C122.843 40.5659 122.676 40.8359 122.462 41.0644C122.248 41.2998 121.994 41.4729 121.694 41.6044C121.393 41.729 121.052 41.7914 120.684 41.7914C120.537 41.7914 120.384 41.7706 120.217 41.7567C120.063 41.729 119.903 41.6806 119.749 41.6113C119.595 41.5421 119.455 41.459 119.321 41.3482C119.181 41.2444 119.074 41.1128 118.98 40.9605V43.9862H117.998L118.005 44Z" fill="#15151E"/>
<path d="M127.901 38.7173C127.868 38.3088 127.728 38.018 127.474 37.8172C127.22 37.6164 126.886 37.5195 126.478 37.5195C126.104 37.5195 125.783 37.6233 125.509 37.8172C125.235 38.018 125.061 38.3226 124.988 38.7173H127.908H127.901ZM124.961 39.5897C125.008 39.9705 125.175 40.282 125.449 40.5036C125.723 40.7321 126.09 40.8429 126.538 40.8429C126.785 40.8429 127.039 40.7944 127.307 40.7113C127.574 40.6144 127.781 40.4828 127.928 40.3097L128.576 40.9675C128.456 41.1129 128.309 41.2306 128.149 41.3344C127.982 41.4383 127.821 41.5352 127.634 41.5975C127.447 41.6599 127.267 41.7222 127.073 41.7568C126.879 41.7845 126.685 41.8052 126.505 41.8052C126.11 41.8052 125.743 41.736 125.435 41.6183C125.115 41.4937 124.847 41.3137 124.62 41.0852C124.393 40.8567 124.219 40.5798 124.099 40.2474C123.972 39.922 123.918 39.5551 123.918 39.1535C123.918 38.7519 123.985 38.4196 124.099 38.108C124.219 37.7826 124.393 37.5126 124.613 37.2841C124.834 37.0556 125.101 36.8756 125.409 36.751C125.723 36.6194 126.057 36.564 126.438 36.564C126.819 36.564 127.18 36.6333 127.5 36.751C127.815 36.8756 128.089 37.0625 128.296 37.3118C128.516 37.561 128.67 37.8726 128.77 38.2534C128.87 38.6342 128.897 39.0704 128.85 39.5827H124.954L124.961 39.5897Z" fill="#15151E"/>
<path d="M130.835 36.6957L130.902 37.3535C131.076 37.0419 131.296 36.8342 131.544 36.7234C131.798 36.6265 132.058 36.5711 132.312 36.5711C132.553 36.5711 132.773 36.6057 132.981 36.6819C133.195 36.758 133.368 36.8619 133.502 36.9865L133.041 37.9005C132.914 37.7966 132.794 37.7204 132.667 37.672C132.54 37.6235 132.379 37.5958 132.192 37.5958C132.018 37.5958 131.851 37.6235 131.697 37.6789C131.544 37.7343 131.403 37.8243 131.283 37.9351C131.163 38.0458 131.069 38.1912 130.996 38.3643C130.922 38.5374 130.889 38.7313 130.889 38.9598V41.6531H129.88V36.6888H130.835V36.6957Z" fill="#15151E"/>
<path d="M135.192 41.6808H134.183V36.675H135.192V41.6808ZM134.063 35.228C134.063 35.0064 134.13 34.8472 134.256 34.7433C134.383 34.6395 134.53 34.5841 134.684 34.5841C134.838 34.5841 134.985 34.6395 135.112 34.7433C135.239 34.8472 135.306 35.0064 135.306 35.228C135.306 35.4495 135.239 35.6088 135.112 35.7126C134.985 35.8165 134.838 35.8719 134.684 35.8719C134.53 35.8719 134.383 35.8165 134.256 35.7126C134.13 35.6088 134.063 35.4495 134.063 35.228Z" fill="#15151E"/>
<path d="M140.246 38.7173C140.212 38.3088 140.072 38.018 139.818 37.8172C139.564 37.6164 139.23 37.5195 138.822 37.5195C138.448 37.5195 138.127 37.6233 137.853 37.8172C137.579 38.018 137.405 38.3226 137.332 38.7173H140.253H140.246ZM137.312 39.5897C137.359 39.9705 137.526 40.282 137.8 40.5036C138.074 40.7321 138.441 40.8429 138.889 40.8429C139.136 40.8429 139.39 40.7944 139.658 40.7113C139.925 40.6144 140.132 40.4828 140.279 40.3097L140.927 40.9675C140.807 41.1129 140.66 41.2306 140.5 41.3344C140.333 41.4383 140.172 41.5352 139.985 41.5975C139.798 41.6599 139.618 41.7222 139.424 41.7568C139.23 41.7845 139.036 41.8052 138.856 41.8052C138.461 41.8052 138.107 41.736 137.786 41.6183C137.466 41.4937 137.198 41.3137 136.971 41.0852C136.744 40.8567 136.57 40.5798 136.45 40.2474C136.329 39.922 136.269 39.5551 136.269 39.1535C136.269 38.7519 136.336 38.4196 136.45 38.108C136.57 37.7826 136.744 37.5126 136.964 37.2841C137.185 37.0556 137.452 36.8756 137.76 36.751C138.074 36.6194 138.408 36.564 138.789 36.564C139.17 36.564 139.531 36.6333 139.852 36.751C140.166 36.8756 140.44 37.0625 140.647 37.3118C140.867 37.561 141.021 37.8726 141.121 38.2534C141.222 38.6342 141.248 39.0704 141.202 39.5827H137.305L137.312 39.5897Z" fill="#15151E"/>
<path d="M145.893 41.6807V39.0151C145.893 38.5858 145.786 38.2396 145.552 37.9627C145.325 37.6996 145.004 37.5542 144.59 37.5542C144.389 37.5542 144.202 37.5888 144.042 37.6788C143.875 37.755 143.728 37.8657 143.621 38.0111C143.501 38.1565 143.407 38.3158 143.347 38.4958C143.28 38.6827 143.247 38.8766 143.247 39.0774V41.6876H142.238V36.6956H143.153L143.207 37.4295C143.668 36.8756 144.202 36.6125 144.831 36.6125C145.125 36.6125 145.399 36.661 145.646 36.7649C145.893 36.8687 146.114 37.021 146.294 37.2288C146.475 37.4295 146.622 37.6857 146.735 37.9765C146.842 38.2812 146.889 38.6204 146.889 39.0081V41.6876H145.893V41.6807Z" fill="#15151E"/>
<path d="M152.269 41.0438C151.995 41.3277 151.708 41.5285 151.414 41.6392C151.12 41.75 150.792 41.8193 150.445 41.8193C150.097 41.8193 149.777 41.7639 149.463 41.6462C149.148 41.5354 148.888 41.3692 148.654 41.1546C148.42 40.9399 148.239 40.663 148.106 40.3376C147.965 40.0122 147.905 39.6383 147.905 39.1952C147.905 38.7521 147.972 38.3851 148.106 38.0528C148.246 37.7274 148.42 37.4573 148.654 37.2358C148.881 37.0142 149.155 36.8481 149.463 36.7442C149.763 36.6334 150.097 36.5711 150.452 36.5711C150.779 36.5711 151.093 36.6265 151.381 36.7442C151.668 36.8619 151.942 37.0488 152.196 37.3119L151.561 37.9835C151.407 37.8381 151.234 37.7343 151.04 37.6581C150.846 37.5889 150.652 37.5543 150.472 37.5543C150.258 37.5543 150.057 37.5889 149.863 37.665C149.67 37.7412 149.509 37.852 149.369 37.9974C149.229 38.1428 149.122 38.3089 149.041 38.5097C148.968 38.7105 148.921 38.939 148.921 39.1813C148.921 39.4444 148.955 39.6729 149.041 39.8737C149.122 40.0745 149.235 40.2407 149.369 40.3791C149.509 40.5245 149.67 40.6145 149.857 40.6838C150.044 40.753 150.244 40.7876 150.445 40.7876C150.645 40.7876 150.859 40.753 151.06 40.6838C151.26 40.6145 151.434 40.4968 151.594 40.3237L152.269 41.023V41.0438Z" fill="#15151E"/>
<path d="M156.74 38.7173C156.706 38.3088 156.566 38.018 156.312 37.8172C156.058 37.6164 155.724 37.5195 155.316 37.5195C154.942 37.5195 154.621 37.6233 154.354 37.8172C154.08 38.018 153.906 38.3226 153.819 38.7173H156.74ZM153.799 39.5897C153.846 39.9705 154 40.282 154.287 40.5036C154.561 40.7321 154.929 40.8429 155.376 40.8429C155.624 40.8429 155.878 40.7944 156.145 40.7113C156.412 40.6144 156.619 40.4828 156.766 40.3097L157.415 40.9675C157.294 41.1129 157.147 41.2306 156.987 41.3344C156.82 41.4383 156.66 41.5352 156.472 41.5975C156.299 41.6668 156.105 41.7222 155.911 41.7568C155.717 41.7845 155.523 41.8052 155.343 41.8052C154.949 41.8052 154.594 41.736 154.274 41.6183C153.953 41.4937 153.686 41.3137 153.458 41.0852C153.231 40.8567 153.057 40.5798 152.937 40.2474C152.81 39.922 152.757 39.5551 152.757 39.1535C152.757 38.7519 152.823 38.4196 152.937 38.108C153.057 37.7826 153.231 37.5126 153.458 37.2841C153.679 37.0556 153.946 36.8756 154.254 36.751C154.568 36.6194 154.902 36.564 155.283 36.564C155.664 36.564 156.025 36.6333 156.345 36.751C156.66 36.8756 156.934 37.0625 157.141 37.3118C157.361 37.561 157.515 37.8726 157.615 38.2534C157.715 38.6342 157.742 39.0704 157.695 39.5827H153.792L153.799 39.5897Z" fill="#15151E"/>
<path d="M45.7192 35.9753L44.269 39.3471H47.1561L45.7192 35.9753ZM47.5638 40.3718H43.8613L43.2197 41.8604H42.0635L45.1311 34.7775H46.3207L49.3816 41.8604H48.2187L47.5571 40.3718H47.5638Z" fill="#15151E"/>
<path d="M110.326 14.055C105.875 12.6979 103.783 10.2677 103.783 6.94435C103.783 2.75553 106.697 0.166077 111.863 0.166077H124.207V5.6427H111.837C110.453 5.6427 109.979 6.23814 109.979 6.86819C109.979 7.66442 110.493 8.1283 111.676 8.48833L117.544 10.2469C122.55 11.7355 125.016 13.6672 125.016 17.6276C125.016 21.5879 122.062 25.0705 115.78 25.0705H104.425V19.5939H116.735C118.366 19.5939 118.914 18.8323 118.914 17.9322C118.914 16.866 118.306 16.4713 116.094 15.8067L110.34 14.0619L110.326 14.055Z" fill="#15151E"/>
<path d="M126.298 5.14449H129.406V1.08722H135.013V5.14449H141.583V9.95645H135.013V18.0294C135.013 19.7188 135.655 20.2519 137.192 20.2519H141.583V25.0639H136.49C131.164 25.0639 129.085 22.8068 129.085 18.0156V9.9426H126.298V5.13757V5.14449Z" fill="#15151E"/>
<path d="M154.515 9.56165H152.396C150.024 9.56165 149.228 10.7871 149.228 13.3766V16.7969C149.228 19.414 150.024 20.6534 152.396 20.6534H154.515C156.887 20.6534 157.656 19.4279 157.656 16.7969V13.3766C157.656 10.7941 156.887 9.56165 154.515 9.56165ZM163.911 16.3122C163.911 21.8927 160.576 25.4169 154.582 25.4169H152.336C146.341 25.4169 142.973 21.8927 142.973 16.3122V13.9166C142.973 8.33616 146.335 4.81201 152.336 4.81201H154.582C160.576 4.81201 163.911 8.33616 163.911 13.9166V16.3122Z" fill="#15151E"/>
<path d="M173.816 5.1441H179.463V9.95606H175.2C173.021 9.95606 172.439 10.6484 172.439 12.6147V25.0704H166.344V12.5455C166.344 8.76518 168.463 5.13718 173.816 5.13718" fill="#15151E"/>
<path d="M188.793 9.33338C186.742 9.33338 186.033 10.1988 186.033 12.3521V12.7883H194.013V12.3521C194.013 10.1988 193.244 9.33338 191.293 9.33338H188.793ZM186.033 16.9771V17.1087C186.033 19.6358 186.962 20.2589 189.589 20.2589H199.339V25.0709H189.943C182.411 25.0709 179.845 21.4567 179.845 16.0978V13.5707C179.845 8.29483 182.538 4.86761 189.301 4.86761H190.584C197.836 4.86761 199.787 8.59255 199.787 14.0692V16.9563H186.033V16.9771Z" fill="#15151E"/>
<path d="M24.3868 14.2697L13.667 25.0429H0L17.0086 7.55373C23.3308 1.07317 26.3783 0.00692317 37.1582 0.00692317H79.7432L70.5004 9.38158H38.3813C30.3281 9.38158 28.6105 10.0255 24.3934 14.2697H24.3868ZM69.117 10.8771H38.5684C30.4551 10.8771 29.1853 11.521 25.5095 15.329L16.1398 25.036H28.8177L31.8318 21.9134C33.8234 19.8502 34.7122 19.6494 38.7288 19.6494H60.6428L69.117 10.8702V10.8771ZM72.4252 25.036L96.6515 0H81.6011L57.4349 25.036H72.4185H72.4252Z" fill="#E10600"/>
<path d="M82.5982 25.0431C81.8363 25.0431 81.2014 24.78 80.7001 24.2538C80.1922 23.7276 79.9449 23.0767 79.9449 22.3013C79.9449 21.5258 80.1989 20.8819 80.7001 20.3557C81.2014 19.8295 81.8363 19.5664 82.5982 19.5664C83.36 19.5664 83.9882 19.8295 84.4895 20.3557C84.9907 20.8819 85.238 21.5328 85.238 22.3082C85.238 23.0837 84.9907 23.7276 84.4962 24.2538C84.0016 24.78 83.3734 25.0431 82.6115 25.0431H82.5982ZM82.5848 19.9957C81.9566 19.9957 81.4353 20.2173 81.0142 20.6673C80.5932 21.1173 80.3794 21.6574 80.3794 22.2944C80.3794 22.9313 80.5932 23.4783 81.0142 23.9214C81.4353 24.3715 81.9566 24.593 82.5848 24.593C83.213 24.593 83.7343 24.3715 84.1553 23.9284C84.5764 23.4852 84.7902 22.9383 84.7902 22.3013C84.7902 21.6643 84.583 21.1173 84.1553 20.6673C83.7343 20.2173 83.213 19.9957 82.5848 19.9957ZM82.0702 22.7513V23.8245H81.4887V20.785H82.5915C82.9724 20.785 83.2598 20.8612 83.4469 21.0066C83.6407 21.152 83.7343 21.3735 83.7343 21.6712C83.7343 21.969 83.6942 22.1836 83.6207 22.329C83.5405 22.4744 83.4135 22.5852 83.2264 22.6752L83.7811 23.8314H83.1662L82.665 22.7583H82.0702V22.7513ZM82.0568 21.2558V22.2805H82.6516C82.8321 22.2805 82.9657 22.239 83.0459 22.1628C83.1261 22.0797 83.1662 21.9551 83.1662 21.7751C83.1662 21.4358 82.959 21.2627 82.5447 21.2627H82.0635L82.0568 21.2558Z" fill="#E10600"/>
</svg>
